<svg xmlns="http://www.w3.org/2000/svg" width="800px" height="800px" viewBox="0 0 24 24" fill="none">
<path d="M9 2.00024C9 1.44796 9.44771 1.00024 10 1.00024C10.5523 1.00024 11 1.44796 11 2.00024V3.00024C11 3.55253 10.5523 4.00024 10 4.00024C9.44771 4.00024 9 3.55253 9 3.00024V2.00024Z" fill="#0F0F0F"/>
<path fill-rule="evenodd" clip-rule="evenodd" d="M14.0006 7.0005C13.0884 5.78591 11.6359 5.00024 10 5.00024C7.23858 5.00024 5 7.23882 5 10.0002C5 10.3515 5.03623 10.6944 5.10515 11.0252C4.75224 11.1654 4.42503 11.3382 4.12434 11.5416C2.81684 12.426 2.1491 13.7958 2.0226 15.1823C1.77602 17.8852 3.61934 21.0002 7.17706 21.0002L18.5526 21.0002C19.9549 21.0002 21.0916 20.5599 21.8787 19.7891C22.6603 19.0236 23.0183 18.0072 22.9993 17.0093C22.9662 15.2772 21.8019 13.5863 19.7773 13.0961C20.0627 10.5291 18.2721 8.25658 16.092 7.39549C15.437 7.13676 14.7268 6.99329 14.0006 7.0005ZM11.7254 7.55237C11.2376 7.20799 10.6424 7.00568 10 7.00568C8.34615 7.00568 7.00543 8.34639 7.00543 10.0002C7.00543 10.2084 7.02667 10.4116 7.0671 10.6078C7.60146 10.5762 8.1724 10.5992 8.77842 10.6808C9.5493 9.16687 10.5659 8.13298 11.7254 7.55237ZM10.3175 12.1097C11.0062 10.4965 11.9034 9.65869 12.7511 9.27892C13.6015 8.89799 14.5189 8.92449 15.3573 9.25564C17.1117 9.94862 18.2154 11.7921 17.6508 13.5043C17.4178 14.211 17.9363 14.9336 18.6672 14.9565C20.2392 15.0058 20.981 16.071 20.9996 17.0475C21.0091 17.5438 20.8334 18.0134 20.4793 18.3602C20.1306 18.7018 19.5296 19.0002 18.5526 19.0002L7.17706 19.0002C5.0662 19.0002 3.8484 17.1828 4.01433 15.364C4.09409 14.4897 4.50102 13.7014 5.24487 13.1982C5.99008 12.6942 7.21156 12.3849 9.0849 12.7592C9.59289 12.8607 10.1116 12.5921 10.3175 12.1097Z" fill="#0F0F0F"/>
<path d="M1 10.0002C1 10.5525 1.44772 11.0002 2 11.0002H3C3.55228 11.0002 4 10.5525 4 10.0002C4 9.44796 3.55228 9.00024 3 9.00024H2C1.44772 9.00024 1 9.44796 1 10.0002Z" fill="#0F0F0F"/>
<path d="M3.63603 5.05061C3.24551 4.66009 3.24551 4.02692 3.63603 3.6364C4.02656 3.24587 4.65972 3.24587 5.05024 3.6364L5.75735 4.34351C6.14788 4.73403 6.14788 5.3672 5.75735 5.75772C5.36683 6.14824 4.73366 6.14824 4.34314 5.75772L3.63603 5.05061Z" fill="#0F0F0F"/>
<path d="M14.2426 4.34328C13.8521 4.7338 13.8521 5.36697 14.2426 5.75749C14.6332 6.14802 15.2663 6.14802 15.6569 5.75749L16.364 5.05039C16.7545 4.65986 16.7545 4.0267 16.364 3.63617C15.9734 3.24565 15.3403 3.24565 14.9498 3.63617L14.2426 4.34328Z" fill="#0F0F0F"/>
</svg>