<svg xmlns="http://www.w3.org/2000/svg" xmlns:xlink="http://www.w3.org/1999/xlink" height="800px" width="800px" version="1.1" id="_x32_" viewBox="0 0 512 512" xml:space="preserve">
<style type="text/css">
	.st0{fill:#000000;}
</style>
<g>
	<path class="st0" d="M416.295,232.076c-0.046,0-0.083,0-0.121,0c0.056-1.594,0.121-3.178,0.121-4.79   c0-76.637-62.125-138.762-138.762-138.762c-71.78,0-130.849,54.52-138.025,124.418c-10.066-3.112-20.765-4.79-31.846-4.79   C48.212,208.153,0,256.355,0,315.814c0,59.46,48.212,107.662,107.662,107.662h308.632c52.852,0,95.705-42.844,95.705-95.704   C512,274.919,469.147,232.076,416.295,232.076z M379.063,255.152l-8.957,15.536l-31.118-17.912L293.051,279.3l45.938,26.523   l31.118-17.922l8.957,15.546l-22.116,12.731l30.316,17.503l-8.984,15.545l-30.307-17.503L348,357.24l-17.94,0.019l-0.037-35.909   l-45.928-26.514v53.038l31.072,17.978l-8.984,15.536l-22.088-12.796v35.014h-17.94v-35.014l-22.088,12.796l-8.984-15.536   l31.072-17.978v-53.038l-45.928,26.514l-0.047,35.909l-17.94-0.019l0.037-25.517l-30.317,17.503l-8.966-15.545l30.317-17.503   l-22.134-12.731l8.966-15.546l31.118,17.922l45.919-26.523l-45.928-26.524l-31.109,17.912l-8.956-15.536l22.116-12.74   l-30.308-17.493l8.966-15.545l30.317,17.503l-0.028-25.527l17.94-0.019l0.047,35.919l45.918,26.514v-53.038l-31.072-17.978   l8.984-15.536l22.088,12.796v-35.014h17.94v35.014l22.088-12.796l8.984,15.536l-31.072,17.978v53.038l45.918-26.514l0.047-35.919   l17.94,0.019l-0.037,25.536l30.317-17.512l8.984,15.545l-30.316,17.503L379.063,255.152z"/>
</g>
</svg>